<svg width="512" height="512" viewBox="0 0 512 512" fill="none" xmlns="http://www.w3.org/2000/svg">
<path d="M422.88 498.401H89.12C69.7257 498.317 51.1522 490.564 37.4532 476.835C23.7542 463.106 16.0421 444.515 16 425.121V177.441C16.0801 164.311 19.6863 151.445 26.4416 140.186C33.1968 128.927 42.8528 119.69 54.4 113.441L220.96 22.401C231.687 16.5614 243.706 13.502 255.92 13.502C268.134 13.502 280.153 16.5614 290.88 22.401L457.92 112.961C469.467 119.21 479.123 128.447 485.878 139.706C492.634 150.965 496.24 163.831 496.32 176.961V425.121C496.278 444.571 488.522 463.209 474.753 476.948C460.985 490.686 442.33 498.401 422.88 498.401ZM256 45.441C249.129 45.4308 242.365 47.1357 236.32 50.401L69.28 141.121C62.801 144.709 57.4066 149.974 53.6626 156.365C49.9185 162.755 47.9626 170.035 48 177.441V425.121C48 436.069 52.3491 446.569 60.0906 454.31C67.8321 462.052 78.3319 466.401 89.28 466.401H422.88C433.8 466.359 444.259 461.991 451.966 454.254C459.673 446.517 464 436.041 464 425.121V177.441C464.006 170.003 462.002 162.701 458.2 156.308C454.398 149.914 448.939 144.667 442.4 141.121L275.68 50.561C269.65 47.24 262.884 45.4799 256 45.441V45.441Z" fill="#D6680F"/>
<path d="M450.235 127.041L283.355 36.4812C274.958 31.916 265.553 29.5244 255.995 29.5244C246.438 29.5244 237.032 31.916 228.635 36.4812L61.7552 127.041C52.7214 131.99 45.1891 139.283 39.9518 148.153C34.7144 157.023 31.9657 167.141 31.9952 177.441V425.121C31.9952 440.313 38.0301 454.882 48.7722 465.624C59.5142 476.366 74.0836 482.401 89.2752 482.401H422.875C438.039 482.359 452.567 476.305 463.275 465.568C473.982 454.83 479.995 440.285 479.995 425.121V177.441C480.025 167.141 477.276 157.023 472.039 148.153C466.801 139.283 459.269 131.99 450.235 127.041V127.041ZM350.235 351.041C345.988 372.918 334.261 392.636 317.066 406.813C299.872 420.99 278.281 428.743 255.995 428.743C233.71 428.743 212.119 420.99 194.924 406.813C177.73 392.636 166.003 372.918 161.755 351.041C161.407 348.748 161.562 346.407 162.209 344.179C162.855 341.952 163.978 339.892 165.5 338.141C167.022 336.391 168.907 334.993 171.023 334.043C173.139 333.093 175.436 332.615 177.755 332.641V332.641C181.567 332.586 185.273 333.893 188.207 336.328C191.14 338.762 193.108 342.165 193.755 345.921C196.769 360.304 204.64 373.212 216.046 382.476C227.453 391.741 241.7 396.798 256.395 396.798C271.09 396.798 285.338 391.741 296.744 382.476C308.151 373.212 316.022 360.304 319.035 345.921C319.683 342.165 321.651 338.762 324.584 336.328C327.517 333.893 331.224 332.586 335.035 332.641C337.24 332.735 339.402 333.285 341.384 334.255C343.367 335.224 345.127 336.594 346.554 338.277C347.982 339.96 349.046 341.92 349.679 344.034C350.313 346.148 350.502 348.37 350.235 350.561V351.041Z" fill="#D6680F"/>
</svg>
