<svg width="512" height="512" fill="none" xmlns="http://www.w3.org/2000/svg"><path d="M422.88 498.401H89.12A73.438 73.438 0 0116 425.121v-247.68a73.278 73.278 0 0138.4-64l166.56-91.04a73.118 73.118 0 0169.92 0l167.04 90.56a73.274 73.274 0 0138.4 64v248.16a73.437 73.437 0 01-73.44 73.28zM256 45.441a41.279 41.279 0 00-19.68 4.96l-167.04 90.72A41.273 41.273 0 0048 177.441v247.68a41.278 41.278 0 0041.28 41.28h333.6a41.279 41.279 0 0041.12-41.28v-247.68a41.28 41.28 0 00-21.6-36.32l-166.72-90.56a41.28 41.28 0 00-19.68-5.12z" fill="#D6680F"/><path d="M450.235 127.041l-166.88-90.56a57.28 57.28 0 00-54.72 0l-166.88 90.56a57.28 57.28 0 00-29.76 50.4v247.68a57.279 57.279 0 0057.28 57.28h333.6a57.282 57.282 0 0057.12-57.28v-247.68a57.28 57.28 0 00-29.76-50.4zm-100 224a95.995 95.995 0 01-94.24 77.702 96.001 96.001 0 01-94.24-77.702 15.997 15.997 0 013.745-12.9 16.01 16.01 0 0112.255-5.5 16.003 16.003 0 0116 13.28 64.005 64.005 0 0062.64 50.877 63.996 63.996 0 0062.64-50.877 16.003 16.003 0 0116-13.28 15.995 15.995 0 0111.519 5.636 15.986 15.986 0 013.681 12.284v.48z" fill="#D6680F"/></svg>